<svg width="204" height="35" viewBox="0 0 204 35" fill="none" xmlns="http://www.w3.org/2000/svg">
<path d="M56.06 26.1C54.4733 26.1 53.0933 25.8133 51.92 25.24C50.7467 24.6533 49.8467 23.8267 49.22 22.76C48.5933 21.6933 48.28 20.4533 48.28 19.04C48.28 17.08 48.6467 15.34 49.38 13.82C50.1267 12.3 51.1333 11.1267 52.4 10.3C53.6667 9.46 55.0733 9.04 56.62 9.04C58.06 9.04 59.1533 9.41333 59.9 10.16C60.6467 10.8933 61.02 11.8667 61.02 13.08C61.02 13.8933 60.8733 14.5467 60.58 15.04C60.3 15.5333 59.8933 15.78 59.36 15.78C58.9867 15.78 58.6933 15.6933 58.48 15.52C58.2667 15.3467 58.16 15.0933 58.16 14.76C58.16 14.64 58.1867 14.42 58.24 14.1C58.32 13.7 58.36 13.38 58.36 13.14C58.36 11.9267 57.7133 11.32 56.42 11.32C55.54 11.32 54.7 11.6067 53.9 12.18C53.1 12.7533 52.4533 13.6 51.96 14.72C51.4667 15.8267 51.22 17.1467 51.22 18.68C51.22 20.28 51.6667 21.52 52.56 22.4C53.4533 23.2667 54.7733 23.7 56.52 23.7C57.3867 23.7 58.26 23.5933 59.14 23.38C60.0333 23.1533 61.02 22.8133 62.1 22.36C62.3 22.28 62.4667 22.24 62.6 22.24C62.8133 22.24 62.9733 22.32 63.08 22.48C63.1867 22.64 63.24 22.8467 63.24 23.1C63.24 23.9133 62.8 24.5133 61.92 24.9C60.9733 25.3133 59.9867 25.62 58.96 25.82C57.9467 26.0067 56.98 26.1 56.06 26.1ZM64.1309 26.1C63.3043 26.1 62.6443 25.8 62.1509 25.2C61.6576 24.6 61.4109 23.8133 61.4109 22.84C61.4109 21.7733 61.6576 20.7667 62.1509 19.82C62.6443 18.86 63.2976 18.0933 64.1109 17.52C64.9376 16.9333 65.8109 16.64 66.7309 16.64C67.0243 16.64 67.2176 16.7 67.3109 16.82C67.4176 16.9267 67.5043 17.1267 67.5709 17.42C67.8509 17.3667 68.1443 17.34 68.4509 17.34C69.1043 17.34 69.4309 17.5733 69.4309 18.04C69.4309 18.32 69.3309 18.9867 69.1309 20.04C68.8243 21.5733 68.6709 22.64 68.6709 23.24C68.6709 23.44 68.7176 23.6 68.8109 23.72C68.9176 23.84 69.0509 23.9 69.2109 23.9C69.4643 23.9 69.7709 23.74 70.1309 23.42C70.4909 23.0867 70.9776 22.5533 71.5909 21.82C71.7509 21.6333 71.9309 21.54 72.1309 21.54C72.3043 21.54 72.4376 21.62 72.5309 21.78C72.6376 21.94 72.6909 22.16 72.6909 22.44C72.6909 22.9733 72.5643 23.3867 72.3109 23.68C71.7643 24.36 71.1843 24.9333 70.5709 25.4C69.9576 25.8667 69.3643 26.1 68.7909 26.1C68.3509 26.1 67.9443 25.9533 67.5709 25.66C67.2109 25.3533 66.9376 24.94 66.7509 24.42C66.0576 25.54 65.1843 26.1 64.1309 26.1ZM64.8509 24.08C65.1443 24.08 65.4243 23.9067 65.6909 23.56C65.9576 23.2133 66.1509 22.7533 66.2709 22.18L67.0109 18.5C66.4509 18.5133 65.9309 18.7267 65.4509 19.14C64.9843 19.54 64.6109 20.0733 64.3309 20.74C64.0509 21.4067 63.9109 22.1133 63.9109 22.86C63.9109 23.2733 63.9909 23.58 64.1509 23.78C64.3243 23.98 64.5576 24.08 64.8509 24.08ZM82.6255 21.54C82.7988 21.54 82.9321 21.62 83.0255 21.78C83.1321 21.94 83.1855 22.16 83.1855 22.44C83.1855 22.9733 83.0588 23.3867 82.8055 23.68C82.2055 24.4133 81.5988 25 80.9855 25.44C80.3721 25.88 79.6455 26.1 78.8055 26.1C77.7788 26.1 76.9521 25.8067 76.3255 25.22C75.6988 24.6333 75.3855 23.8533 75.3855 22.88C75.3855 22.36 75.6521 21.9867 76.1855 21.76C76.7721 21.5067 77.1921 21.24 77.4455 20.96C77.6988 20.6667 77.8255 20.3133 77.8255 19.9C77.8255 19.66 77.7721 19.48 77.6655 19.36C77.5721 19.24 77.4521 19.18 77.3055 19.18C76.9455 19.18 76.5455 19.44 76.1055 19.96C75.6788 20.48 75.2788 21.1533 74.9055 21.98C74.5321 22.7933 74.2388 23.6333 74.0255 24.5C73.8788 25.1267 73.7055 25.5533 73.5055 25.78C73.3188 25.9933 73.0188 26.1 72.6055 26.1C72.1921 26.1 71.8855 25.9533 71.6855 25.66C71.4988 25.3533 71.3721 24.8867 71.3055 24.26C71.2388 23.6333 71.2055 22.7133 71.2055 21.5C71.2055 19.4467 71.4121 17.3067 71.8255 15.08C72.2521 12.8533 72.8721 10.9867 73.6855 9.48C74.5121 7.96 75.4988 7.2 76.6455 7.2C77.2588 7.2 77.7521 7.46667 78.1255 8C78.5121 8.52 78.7055 9.2 78.7055 10.04C78.7055 11.3867 78.3121 12.7867 77.5255 14.24C76.7388 15.68 75.4588 17.3667 73.6855 19.3C73.6455 19.9933 73.6255 20.7067 73.6255 21.44C74.2655 19.7733 74.9988 18.5667 75.8255 17.82C76.6521 17.06 77.4255 16.68 78.1455 16.68C78.8121 16.68 79.3455 16.9067 79.7455 17.36C80.1588 17.8133 80.3655 18.3733 80.3655 19.04C80.3655 19.7733 80.1788 20.4467 79.8055 21.06C79.4321 21.6733 78.7921 22.22 77.8855 22.7C77.9388 23.06 78.0988 23.3533 78.3655 23.58C78.6455 23.7933 78.9788 23.9 79.3655 23.9C79.7788 23.9 80.1788 23.74 80.5655 23.42C80.9521 23.1 81.4588 22.5667 82.0855 21.82C82.2455 21.6333 82.4255 21.54 82.6255 21.54ZM76.2255 9.18C75.9855 9.18 75.7188 9.52667 75.4255 10.22C75.1321 10.9 74.8455 11.8267 74.5655 13C74.2988 14.16 74.0788 15.4267 73.9055 16.8C74.7321 15.8267 75.4121 14.7667 75.9455 13.62C76.4921 12.4733 76.7655 11.4333 76.7655 10.5C76.7655 10.0733 76.7188 9.74667 76.6255 9.52C76.5321 9.29333 76.3988 9.18 76.2255 9.18ZM88.7333 22.14C88.9066 22.14 89.0399 22.22 89.1333 22.38C89.2399 22.54 89.2933 22.76 89.2933 23.04C89.2933 23.52 89.1799 23.9333 88.9533 24.28C88.5799 24.8533 88.0866 25.3 87.4733 25.62C86.8733 25.94 86.1533 26.1 85.3133 26.1C84.0333 26.1 83.0399 25.72 82.3333 24.96C81.6266 24.1867 81.2733 23.1467 81.2733 21.84C81.2733 20.92 81.4666 20.0667 81.8533 19.28C82.2399 18.48 82.7733 17.8467 83.4533 17.38C84.1466 16.9133 84.9266 16.68 85.7933 16.68C86.5666 16.68 87.1866 16.9133 87.6533 17.38C88.1199 17.8333 88.3533 18.4533 88.3533 19.24C88.3533 20.16 88.0199 20.9533 87.3533 21.62C86.6999 22.2733 85.5799 22.7933 83.9933 23.18C84.3133 23.7933 84.8533 24.1 85.6133 24.1C86.1599 24.1 86.6066 23.9733 86.9533 23.72C87.3133 23.4667 87.7266 23.04 88.1933 22.44C88.3533 22.24 88.5333 22.14 88.7333 22.14ZM85.4533 18.64C84.9599 18.64 84.5399 18.9267 84.1933 19.5C83.8599 20.0733 83.6933 20.7667 83.6933 21.58V21.62C84.4799 21.4333 85.0999 21.1533 85.5533 20.78C86.0066 20.4067 86.2333 19.9733 86.2333 19.48C86.2333 19.2267 86.1599 19.0267 86.0133 18.88C85.8799 18.72 85.6933 18.64 85.4533 18.64ZM100.289 26.1C99.5156 26.1 98.6422 26.0333 97.6689 25.9C97.1356 25.8333 96.7689 25.6933 96.5689 25.48C96.3689 25.2667 96.2822 24.92 96.3089 24.44C96.4022 23.12 96.6222 21.4933 96.9689 19.56C97.3156 17.6133 97.7356 15.74 98.2289 13.94C98.3222 13.6067 98.5089 13.3733 98.7889 13.24C99.0689 13.1067 99.4356 13.04 99.8889 13.04C100.702 13.04 101.109 13.2667 101.109 13.72C101.109 13.9067 101.069 14.12 100.989 14.36C100.642 15.4267 100.296 16.86 99.9489 18.66C99.6022 20.4467 99.3556 22.1533 99.2089 23.78C99.6089 23.82 100.062 23.84 100.569 23.84C102.902 23.84 104.642 23.1333 105.789 21.72C106.949 20.3067 107.529 18.42 107.529 16.06C107.529 14.4733 107.076 13.2467 106.169 12.38C105.262 11.5133 103.982 11.08 102.329 11.08C101.262 11.08 100.202 11.2467 99.1489 11.58C98.1089 11.9133 97.1689 12.3533 96.3289 12.9C96.1556 13.02 95.9689 13.08 95.7689 13.08C95.5422 13.08 95.3622 12.9867 95.2289 12.8C95.0956 12.6 95.0289 12.36 95.0289 12.08C95.0289 11.76 95.0822 11.5 95.1889 11.3C95.2956 11.0867 95.4756 10.8933 95.7289 10.72C96.6489 10.0933 97.7289 9.62 98.9689 9.3C100.209 8.96667 101.402 8.8 102.549 8.8C104.176 8.8 105.582 9.08667 106.769 9.66C107.956 10.22 108.869 11.0467 109.509 12.14C110.149 13.2333 110.469 14.5533 110.469 16.1C110.469 18.1133 110.069 19.8733 109.269 21.38C108.469 22.8733 107.302 24.0333 105.769 24.86C104.236 25.6867 102.409 26.1 100.289 26.1ZM120.728 21.54C120.901 21.54 121.034 21.62 121.128 21.78C121.234 21.94 121.288 22.16 121.288 22.44C121.288 22.9733 121.161 23.3867 120.908 23.68C120.414 24.28 119.714 24.8333 118.808 25.34C117.914 25.8467 116.954 26.1 115.928 26.1C114.528 26.1 113.441 25.72 112.668 24.96C111.894 24.2 111.508 23.16 111.508 21.84C111.508 20.92 111.701 20.0667 112.088 19.28C112.474 18.48 113.008 17.8467 113.688 17.38C114.381 16.9133 115.161 16.68 116.028 16.68C116.801 16.68 117.421 16.9133 117.888 17.38C118.354 17.8333 118.588 18.4533 118.588 19.24C118.588 20.16 118.254 20.9533 117.588 21.62C116.934 22.2733 115.821 22.7933 114.248 23.18C114.581 23.7933 115.214 24.1 116.148 24.1C116.748 24.1 117.428 23.8933 118.188 23.48C118.961 23.0533 119.628 22.5 120.188 21.82C120.348 21.6333 120.528 21.54 120.728 21.54ZM115.688 18.64C115.194 18.64 114.774 18.9267 114.428 19.5C114.094 20.0733 113.928 20.7667 113.928 21.58V21.62C114.714 21.4333 115.334 21.1533 115.788 20.78C116.241 20.4067 116.468 19.9733 116.468 19.48C116.468 19.2267 116.394 19.0267 116.248 18.88C116.114 18.72 115.928 18.64 115.688 18.64ZM128.579 21.54C128.753 21.54 128.886 21.62 128.979 21.78C129.086 21.94 129.139 22.16 129.139 22.44C129.139 22.9733 129.013 23.3867 128.759 23.68C128.186 24.3867 127.559 24.9667 126.879 25.42C126.199 25.8733 125.419 26.1 124.539 26.1C121.819 26.1 120.459 24.1867 120.459 20.36C120.459 19.7733 120.479 19.18 120.519 18.58H119.739C119.339 18.58 119.066 18.5067 118.919 18.36C118.786 18.2133 118.719 17.98 118.719 17.66C118.719 16.9133 119.019 16.54 119.619 16.54H120.759C120.986 15.0733 121.333 13.7333 121.799 12.52C122.266 11.3067 122.826 10.34 123.479 9.62C124.146 8.9 124.859 8.54 125.619 8.54C126.179 8.54 126.619 8.78667 126.939 9.28C127.259 9.77333 127.419 10.3933 127.419 11.14C127.419 13.2067 126.553 15.0067 124.819 16.54H127.059C127.273 16.54 127.426 16.5867 127.519 16.68C127.613 16.7733 127.659 16.9467 127.659 17.2C127.659 18.12 126.906 18.58 125.399 18.58H122.959C122.933 19.2467 122.919 19.7667 122.919 20.14C122.919 21.5267 123.079 22.5 123.399 23.06C123.733 23.62 124.253 23.9 124.959 23.9C125.533 23.9 126.039 23.7267 126.479 23.38C126.919 23.0333 127.439 22.5133 128.039 21.82C128.199 21.6333 128.379 21.54 128.579 21.54ZM125.079 10.46C124.879 10.46 124.653 10.7133 124.399 11.22C124.159 11.7133 123.926 12.4067 123.699 13.3C123.486 14.18 123.306 15.16 123.159 16.24C123.946 15.56 124.533 14.8 124.919 13.96C125.319 13.1067 125.519 12.3333 125.519 11.64C125.519 10.8533 125.373 10.46 125.079 10.46ZM129.971 26.1C129.144 26.1 128.484 25.8 127.991 25.2C127.497 24.6 127.251 23.8133 127.251 22.84C127.251 21.7733 127.497 20.7667 127.991 19.82C128.484 18.86 129.137 18.0933 129.951 17.52C130.777 16.9333 131.651 16.64 132.571 16.64C132.864 16.64 133.057 16.7 133.151 16.82C133.257 16.9267 133.344 17.1267 133.411 17.42C133.691 17.3667 133.984 17.34 134.291 17.34C134.944 17.34 135.271 17.5733 135.271 18.04C135.271 18.32 135.171 18.9867 134.971 20.04C134.664 21.5733 134.511 22.64 134.511 23.24C134.511 23.44 134.557 23.6 134.651 23.72C134.757 23.84 134.891 23.9 135.051 23.9C135.304 23.9 135.611 23.74 135.971 23.42C136.331 23.0867 136.817 22.5533 137.431 21.82C137.591 21.6333 137.771 21.54 137.971 21.54C138.144 21.54 138.277 21.62 138.371 21.78C138.477 21.94 138.531 22.16 138.531 22.44C138.531 22.9733 138.404 23.3867 138.151 23.68C137.604 24.36 137.024 24.9333 136.411 25.4C135.797 25.8667 135.204 26.1 134.631 26.1C134.191 26.1 133.784 25.9533 133.411 25.66C133.051 25.3533 132.777 24.94 132.591 24.42C131.897 25.54 131.024 26.1 129.971 26.1ZM130.691 24.08C130.984 24.08 131.264 23.9067 131.531 23.56C131.797 23.2133 131.991 22.7533 132.111 22.18L132.851 18.5C132.291 18.5133 131.771 18.7267 131.291 19.14C130.824 19.54 130.451 20.0733 130.171 20.74C129.891 21.4067 129.751 22.1133 129.751 22.86C129.751 23.2733 129.831 23.58 129.991 23.78C130.164 23.98 130.397 24.08 130.691 24.08ZM139.525 15.36C138.965 15.36 138.545 15.2333 138.265 14.98C137.985 14.7133 137.845 14.3467 137.845 13.88C137.845 13.4133 138.025 13.0267 138.385 12.72C138.759 12.4 139.219 12.24 139.765 12.24C140.259 12.24 140.659 12.36 140.965 12.6C141.272 12.84 141.425 13.18 141.425 13.62C141.425 14.1533 141.252 14.58 140.905 14.9C140.559 15.2067 140.099 15.36 139.525 15.36ZM139.365 26.1C138.499 26.1 137.865 25.7933 137.465 25.18C137.079 24.5667 136.885 23.7533 136.885 22.74C136.885 22.14 136.959 21.3733 137.105 20.44C137.265 19.4933 137.465 18.6133 137.705 17.8C137.825 17.3733 137.985 17.08 138.185 16.92C138.385 16.76 138.705 16.68 139.145 16.68C139.825 16.68 140.165 16.9067 140.165 17.36C140.165 17.6933 140.039 18.4667 139.785 19.68C139.465 21.1467 139.305 22.14 139.305 22.66C139.305 23.06 139.359 23.3667 139.465 23.58C139.572 23.7933 139.752 23.9 140.005 23.9C140.245 23.9 140.545 23.7333 140.905 23.4C141.265 23.0667 141.745 22.54 142.345 21.82C142.505 21.6333 142.685 21.54 142.885 21.54C143.059 21.54 143.192 21.62 143.285 21.78C143.392 21.94 143.445 22.16 143.445 22.44C143.445 22.9733 143.319 23.3867 143.065 23.68C141.745 25.2933 140.512 26.1 139.365 26.1ZM149.407 21.54C149.581 21.54 149.714 21.62 149.807 21.78C149.914 21.94 149.967 22.16 149.967 22.44C149.967 22.9733 149.841 23.3867 149.587 23.68C149.014 24.3867 148.387 24.9667 147.707 25.42C147.041 25.8733 146.281 26.1 145.427 26.1C144.254 26.1 143.381 25.5667 142.807 24.5C142.247 23.4333 141.967 22.0533 141.967 20.36C141.967 18.7333 142.174 16.88 142.587 14.8C143.014 12.72 143.634 10.9333 144.447 9.44C145.274 7.94667 146.254 7.2 147.387 7.2C148.027 7.2 148.527 7.5 148.887 8.1C149.261 8.68667 149.447 9.53333 149.447 10.64C149.447 12.2267 149.007 14.0667 148.127 16.16C147.247 18.2533 146.054 20.3267 144.547 22.38C144.641 22.9267 144.794 23.32 145.007 23.56C145.221 23.7867 145.501 23.9 145.847 23.9C146.394 23.9 146.874 23.7467 147.287 23.44C147.701 23.12 148.227 22.58 148.867 21.82C149.027 21.6333 149.207 21.54 149.407 21.54ZM146.947 9.18C146.641 9.18 146.294 9.73333 145.907 10.84C145.521 11.9467 145.181 13.32 144.887 14.96C144.594 16.6 144.434 18.1733 144.407 19.68C145.354 18.12 146.107 16.56 146.667 15C147.227 13.4267 147.507 11.9933 147.507 10.7C147.507 9.68667 147.321 9.18 146.947 9.18ZM152.071 26.54C151.377 26.54 150.844 26.38 150.471 26.06C150.111 25.74 149.931 25.38 149.931 24.98C149.931 24.6333 150.057 24.3333 150.311 24.08C150.564 23.8267 150.937 23.7 151.431 23.7C151.604 23.7 151.804 23.72 152.031 23.76C152.271 23.7867 152.451 23.8067 152.571 23.82C152.557 23.4733 152.477 23.1467 152.331 22.84C152.197 22.5333 152.024 22.24 151.811 21.96C151.597 21.6667 151.397 21.4133 151.211 21.2C150.797 21.9867 150.384 22.64 149.971 23.16C149.571 23.68 149.131 24.1733 148.651 24.64C148.411 24.88 148.157 25 147.891 25C147.677 25 147.504 24.9267 147.371 24.78C147.237 24.62 147.171 24.4267 147.171 24.2C147.171 23.9333 147.264 23.6867 147.451 23.46L147.711 23.14C148.444 22.2333 148.997 21.4867 149.371 20.9C149.611 20.5133 149.851 20.0533 150.091 19.52C150.344 18.9867 150.671 18.26 151.071 17.34C151.324 16.7533 151.851 16.46 152.651 16.46C153.024 16.46 153.284 16.4933 153.431 16.56C153.577 16.6267 153.651 16.7333 153.651 16.88C153.651 16.96 153.624 17.0867 153.571 17.26C153.517 17.4333 153.444 17.6067 153.351 17.78C153.111 18.26 152.991 18.6667 152.991 19C152.991 19.2 153.057 19.42 153.191 19.66C153.337 19.9 153.557 20.2 153.851 20.56C154.277 21.12 154.597 21.6 154.811 22C155.037 22.3867 155.151 22.8133 155.151 23.28C155.151 23.84 155.017 24.3733 154.751 24.88C154.497 25.3733 154.137 25.7733 153.671 26.08C153.204 26.3867 152.671 26.54 152.071 26.54Z" fill="#633514"/>
<path d="M4.74614 10.0142C4.28368 10.097 4.30194 10.0438 4.56968 10.6001C4.88001 11.2453 4.97737 11.7069 4.88001 12.1153C4.72788 12.7487 4.28977 13.1393 2.92066 13.8555C1.74627 14.4769 1.44202 14.6841 1.03433 15.1635C0.803103 15.4417 0.559706 15.927 0.620555 15.9862C0.63881 16.004 0.772679 15.9507 0.924802 15.8679C1.55763 15.5246 2.35476 15.3292 4.65486 14.9564C7.24704 14.5361 7.97724 14.2283 8.38493 13.3642C8.51271 13.0919 8.52488 12.9854 8.50663 12.5356C8.48837 12.1035 8.45186 11.9555 8.28757 11.63C7.77643 10.606 6.83327 10.0615 5.47633 10.0083C5.15991 9.99641 4.83133 9.99641 4.74614 10.0142Z" fill="#632414"/>
<path d="M9.01165 14.5776C8.58571 14.9859 7.80075 15.3648 6.93669 15.566C6.18825 15.7436 5.79272 15.7909 3.9855 15.9566C1.92271 16.146 1.22903 16.3177 0.803081 16.7438C0.699637 16.8504 0.602278 16.9983 0.596193 17.0812C0.577938 17.2173 0.602278 17.2292 0.912609 17.2647C1.09516 17.2884 1.38723 17.3475 1.5637 17.4067C1.87403 17.5074 1.89228 17.5014 2.31823 17.3771C2.79285 17.2351 3.15795 17.241 3.65083 17.3949C3.88814 17.4659 3.96116 17.4718 4.2289 17.3949C4.73395 17.2528 5.17815 17.2351 5.4398 17.3416C5.73187 17.46 6.1274 17.46 6.4073 17.3475C6.529 17.3002 6.74806 17.2588 6.8941 17.2588C7.04622 17.2588 7.28353 17.3002 7.42349 17.3475C7.56344 17.3949 7.7825 17.4363 7.91028 17.4363C8.03806 17.4363 8.25712 17.3949 8.39708 17.3475C8.75609 17.2233 9.13944 17.2351 9.58972 17.3831L9.97307 17.5074L10.3808 17.3831C10.6059 17.318 10.9284 17.2588 11.0927 17.2588H11.3909L11.3665 16.7379C11.3239 15.8027 10.8858 15.1753 9.84529 14.5598L9.34024 14.2639L9.01165 14.5776Z" fill="#632414"/>
<path d="M0 17.9868C0 18.0105 0.578068 19.064 1.70378 21.0882L2.76256 23H5.96323H9.16999L10.2288 21.0941C11.3667 19.0344 11.9265 18.0105 11.9265 17.9868C11.9265 17.9394 11.1354 17.9809 10.9346 18.0341C10.4417 18.1643 10.3261 18.3538 9.52292 20.4549L8.78055 22.3785H8.57367C8.40937 22.3785 8.37286 22.3549 8.38503 22.272C8.3972 22.2128 8.67711 21.4019 9.01178 20.4786C9.34037 19.5493 9.61419 18.7266 9.61419 18.6438C9.61419 18.3064 9.27952 17.969 8.94485 17.969C8.71362 17.969 8.40937 18.1348 8.3181 18.3064C8.26334 18.4011 8.05645 19.3422 7.84956 20.3957C7.64267 21.4552 7.46012 22.3371 7.44796 22.3608C7.41145 22.414 7.09503 22.4259 7.04635 22.3785C7.03418 22.3608 7.16196 21.5085 7.33843 20.4786C7.67918 18.4899 7.67918 18.4425 7.41145 18.1643C7.14371 17.8862 6.57781 17.9572 6.34658 18.3005C6.24922 18.4485 6.23705 18.6556 6.20663 20.4253L6.1762 22.3785H5.96323H5.75026L5.71983 20.4253C5.68941 18.3064 5.68333 18.2886 5.33648 18.0874C5.087 17.9394 4.8862 17.9394 4.63672 18.0874C4.23511 18.3301 4.23511 18.3715 4.58804 20.4727C4.7645 21.5025 4.89228 22.3608 4.88011 22.3785C4.83143 22.4259 4.51502 22.414 4.48459 22.3608C4.46634 22.3371 4.28379 21.4552 4.08299 20.4076C3.8761 19.354 3.66921 18.4129 3.61445 18.3123C3.52317 18.1348 3.21284 17.969 2.98162 17.969C2.64694 17.969 2.31227 18.3064 2.31227 18.6438C2.31227 18.7266 2.5861 19.5493 2.91468 20.4786C3.24935 21.4019 3.52926 22.2128 3.54143 22.272C3.5536 22.3549 3.51709 22.3785 3.3528 22.3785H3.14591L2.40355 20.4549C1.60034 18.3538 1.48472 18.1643 0.991844 18.0341C0.791041 17.9809 0 17.9394 0 17.9868Z" fill="#632414"/>
<path d="M196.746 11.0142C196.284 11.097 196.302 11.0438 196.57 11.6001C196.88 12.2453 196.977 12.7069 196.88 13.1153C196.728 13.7487 196.29 14.1393 194.921 14.8555C193.746 15.4769 193.442 15.6841 193.034 16.1635C192.803 16.4417 192.56 16.927 192.621 16.9862C192.639 17.004 192.773 16.9507 192.925 16.8679C193.558 16.5246 194.355 16.3292 196.655 15.9564C199.247 15.5361 199.977 15.2283 200.385 14.3642C200.513 14.0919 200.525 13.9854 200.507 13.5356C200.488 13.1035 200.452 12.9555 200.288 12.63C199.776 11.606 198.833 11.0615 197.476 11.0083C197.16 10.9964 196.831 10.9964 196.746 11.0142Z" fill="#632414"/>
<path d="M201.012 15.5776C200.586 15.9859 199.801 16.3648 198.937 16.566C198.188 16.7436 197.793 16.7909 195.985 16.9566C193.923 17.146 193.229 17.3177 192.803 17.7438C192.7 17.8504 192.602 17.9983 192.596 18.0812C192.578 18.2173 192.602 18.2292 192.913 18.2647C193.095 18.2884 193.387 18.3475 193.564 18.4067C193.874 18.5074 193.892 18.5014 194.318 18.3771C194.793 18.2351 195.158 18.241 195.651 18.3949C195.888 18.4659 195.961 18.4718 196.229 18.3949C196.734 18.2528 197.178 18.2351 197.44 18.3416C197.732 18.46 198.127 18.46 198.407 18.3475C198.529 18.3002 198.748 18.2588 198.894 18.2588C199.046 18.2588 199.284 18.3002 199.423 18.3475C199.563 18.3949 199.782 18.4363 199.91 18.4363C200.038 18.4363 200.257 18.3949 200.397 18.3475C200.756 18.2233 201.139 18.2351 201.59 18.3831L201.973 18.5074L202.381 18.3831C202.606 18.318 202.928 18.2588 203.093 18.2588H203.391L203.367 17.7379C203.324 16.8027 202.886 16.1753 201.845 15.5598L201.34 15.2639L201.012 15.5776Z" fill="#632414"/>
<path d="M192 18.9868C192 19.0105 192.578 20.064 193.704 22.0882L194.763 24H197.963H201.17L202.229 22.0941C203.367 20.0344 203.926 19.0105 203.926 18.9868C203.926 18.9394 203.135 18.9809 202.935 19.0341C202.442 19.1643 202.326 19.3538 201.523 21.4549L200.781 23.3785H200.574C200.409 23.3785 200.373 23.3549 200.385 23.272C200.397 23.2128 200.677 22.4019 201.012 21.4786C201.34 20.5493 201.614 19.7266 201.614 19.6438C201.614 19.3064 201.28 18.969 200.945 18.969C200.714 18.969 200.409 19.1348 200.318 19.3064C200.263 19.4011 200.056 20.3422 199.85 21.3957C199.643 22.4552 199.46 23.3371 199.448 23.3608C199.411 23.414 199.095 23.4259 199.046 23.3785C199.034 23.3608 199.162 22.5085 199.338 21.4786C199.679 19.4899 199.679 19.4425 199.411 19.1643C199.144 18.8862 198.578 18.9572 198.347 19.3005C198.249 19.4485 198.237 19.6556 198.207 21.4253L198.176 23.3785H197.963H197.75L197.72 21.4253C197.689 19.3064 197.683 19.2886 197.336 19.0874C197.087 18.9394 196.886 18.9394 196.637 19.0874C196.235 19.3301 196.235 19.3715 196.588 21.4727C196.765 22.5025 196.892 23.3608 196.88 23.3785C196.831 23.4259 196.515 23.414 196.485 23.3608C196.466 23.3371 196.284 22.4552 196.083 21.4076C195.876 20.354 195.669 19.4129 195.614 19.3123C195.523 19.1348 195.213 18.969 194.982 18.969C194.647 18.969 194.312 19.3064 194.312 19.6438C194.312 19.7266 194.586 20.5493 194.915 21.4786C195.249 22.4019 195.529 23.2128 195.541 23.272C195.554 23.3549 195.517 23.3785 195.353 23.3785H195.146L194.404 21.4549C193.6 19.3538 193.485 19.1643 192.992 19.0341C192.791 18.9809 192 18.9394 192 18.9868Z" fill="#632414"/>
</svg>
