<svg width="40" height="25" viewBox="0 0 40 25" fill="none" xmlns="http://www.w3.org/2000/svg">
<g opacity="0.5">
<rect width="40" height="25" rx="4" fill="#632414"/>
<path d="M15.164 13.076H12.608V15.668H11.588V13.076H9.044V12.152H11.588V9.548H12.608V12.152H15.164V13.076Z" fill="#FFECE0"/>
<path d="M17.8299 5.72352C17.7096 5.85477 17.7096 6.0243 17.8354 6.13368C17.9065 6.1993 18.0869 6.22118 18.6229 6.23758C19.5307 6.25946 19.5416 6.2704 19.8315 7.10711C20.6135 9.38758 22.0026 13.5056 22.0026 13.5493C22.0026 13.5766 21.9479 13.6095 21.8768 13.6313C21.6745 13.6806 21.308 14.0306 21.1768 14.304C21.0291 14.6102 21.0127 15.1188 21.1385 15.4196C21.2588 15.6931 21.5432 15.9993 21.8057 16.1415L22.0299 16.2618L26.569 16.2782C31.4088 16.2946 31.2448 16.3001 31.3268 16.0321C31.3487 15.9391 31.3213 15.8735 31.2229 15.7696L31.0862 15.6329H26.6401C22.3252 15.6329 22.1885 15.6274 22.019 15.5235C21.6909 15.3266 21.587 14.9274 21.762 14.5556C21.9534 14.1618 21.6963 14.1891 26.0768 14.1563L30.0143 14.129L30.2713 13.9759C30.7088 13.7243 30.6159 13.954 31.8135 10.1806C32.1307 9.18524 32.3932 8.33211 32.3932 8.2829C32.3932 8.1243 32.262 7.91102 32.1143 7.83446C31.983 7.76883 31.0971 7.7579 26.3393 7.7579H20.712L20.4768 7.03055C20.1924 6.16649 20.0612 5.94774 19.6893 5.7618C19.4323 5.63602 19.3557 5.62508 18.6666 5.62508C18.0104 5.62508 17.9065 5.63602 17.8299 5.72352ZM31.6823 8.45243C31.6823 8.47977 31.3487 9.55165 30.9385 10.8477C30.2987 12.8876 30.1729 13.2212 30.0362 13.347L29.8776 13.5001H26.2737H22.6752L21.8385 11.0227C21.3791 9.66649 20.9909 8.51805 20.9745 8.47977C20.958 8.43055 22.0463 8.41415 26.3174 8.41415C29.2705 8.41415 31.6823 8.43055 31.6823 8.45243Z" fill="#FFECE0"/>
<path d="M22.8065 16.5297C22.0737 16.7321 21.6088 17.4102 21.6909 18.1758C21.7237 18.5258 21.8385 18.761 22.1065 19.0399C22.3745 19.3297 22.6752 19.4719 23.0745 19.5047C23.9768 19.5758 24.7151 18.8868 24.6987 17.9899C24.6932 17.5578 24.5893 17.2899 24.294 16.9727C23.9221 16.5735 23.3096 16.3875 22.8065 16.5297ZM23.5721 17.1969C24.0151 17.4102 24.1956 17.9352 23.9768 18.3836C23.7088 18.9414 23.0088 19.0563 22.5713 18.6188C21.8823 17.9297 22.6916 16.7813 23.5721 17.1969Z" fill="#FFECE0"/>
<path d="M28.937 16.5298C28.2643 16.7157 27.7995 17.3227 27.7995 18.0227C27.7995 18.5423 28.1768 19.1329 28.6745 19.379C28.9534 19.5212 29.4784 19.5485 29.8065 19.4391C30.6159 19.1712 31.0479 18.236 30.7362 17.4266C30.4792 16.7704 29.6206 16.3383 28.937 16.5298ZM29.812 17.2571C30.1893 17.536 30.3097 18.0063 30.1018 18.4055C29.6917 19.2094 28.4557 18.9251 28.4557 18.0282C28.4557 17.6344 28.6636 17.3118 29.0026 17.1696C29.205 17.0821 29.6425 17.1313 29.812 17.2571Z" fill="#FFECE0"/>
</g>
</svg>
