<svg width="22" height="22" viewBox="0 0 22 22" fill="none" xmlns="http://www.w3.org/2000/svg">
<path d="M0.133506 0.813404C-0.0458381 1.00905 -0.0458381 1.26176 0.141658 1.4248C0.247634 1.52263 0.51665 1.55524 1.31555 1.57969C2.66878 1.6123 2.68508 1.6286 3.11714 2.87586C4.28288 6.27525 6.35349 12.4137 6.35349 12.4789C6.35349 12.5197 6.27197 12.5686 6.16599 12.6012C5.86437 12.6746 5.31818 13.1963 5.12253 13.6039C4.90243 14.0604 4.87797 14.8185 5.06547 15.2669C5.24481 15.6745 5.66872 16.131 6.06001 16.343L6.39425 16.5223L13.1604 16.5468C20.3749 16.5712 20.1304 16.5794 20.2527 16.1799C20.2853 16.0413 20.2445 15.9435 20.0978 15.7886L19.894 15.5848H13.2664C6.83446 15.5848 6.63065 15.5767 6.37794 15.4218C5.88882 15.1283 5.73393 14.5332 5.9948 13.9789C6.28012 13.3919 5.89697 13.4327 12.4267 13.3838L18.2962 13.343L18.6793 13.1148C19.3315 12.7398 19.1929 13.0822 20.9782 7.45729C21.451 5.97362 21.8423 4.70191 21.8423 4.62854C21.8423 4.39213 21.6467 4.07421 21.4265 3.96008C21.2309 3.86225 19.9103 3.84595 12.818 3.84595H4.42961L4.07908 2.76173C3.65517 1.47372 3.45952 1.14764 2.90519 0.870468C2.52204 0.682972 2.40792 0.666668 1.38076 0.666668C0.402522 0.666668 0.247634 0.682972 0.133506 0.813404ZM20.7825 4.88125C20.7825 4.92201 20.2853 6.51981 19.6739 8.45183C18.7201 11.4925 18.5326 11.9898 18.3288 12.1773L18.0924 12.4056H12.7202H7.35618L6.10893 8.7127C5.42416 6.691 4.84537 4.97908 4.82091 4.92201C4.79645 4.84865 6.4187 4.82419 12.7854 4.82419C17.1875 4.82419 20.7825 4.84865 20.7825 4.88125Z" fill="#632414"/>
<path d="M7.55182 16.9218C6.45946 17.2234 5.76653 18.2342 5.88882 19.3755C5.93773 19.8972 6.10892 20.2478 6.50837 20.6635C6.90782 21.0956 7.35618 21.3075 7.95127 21.3565C9.29635 21.4624 10.3969 20.4353 10.3724 19.0983C10.3643 18.4543 10.2094 18.0549 9.76917 17.5821C9.21483 16.987 8.30181 16.7098 7.55182 16.9218ZM8.6931 17.9163C9.35342 18.2342 9.62243 19.0168 9.29635 19.6853C8.8969 20.5168 7.85345 20.688 7.20129 20.0358C6.17414 19.0087 7.38063 17.2968 8.6931 17.9163Z" fill="#632414"/>
<path d="M16.6901 16.9218C15.6874 17.1989 14.9945 18.1038 14.9945 19.1473C14.9945 19.9217 15.557 20.8021 16.2988 21.169C16.7146 21.3809 17.4972 21.4217 17.9863 21.2586C19.1928 20.8592 19.8368 19.4652 19.3721 18.2587C18.989 17.2804 17.7091 16.6364 16.6901 16.9218ZM17.9944 18.006C18.5569 18.4217 18.7363 19.1228 18.4265 19.7179C17.8151 20.9162 15.9727 20.4923 15.9727 19.1554C15.9727 18.5685 16.2825 18.0875 16.7879 17.8755C17.0896 17.7451 17.7417 17.8185 17.9944 18.006Z" fill="#632414"/>
</svg>
