<svg width="204" height="36" viewBox="0 0 204 36" fill="none" xmlns="http://www.w3.org/2000/svg">
<path d="M72.74 9.42C73.1133 9.47333 73.3667 9.58667 73.5 9.76C73.6467 9.93333 73.72 10.16 73.72 10.44C73.72 11.36 73.2267 11.7867 72.24 11.72L71.54 11.66C70.7533 11.5933 69.9667 11.54 69.18 11.5C68.4067 11.46 67.5933 11.44 66.74 11.44H65.84C65.68 13.4133 65.5133 15.2133 65.34 16.84L68.78 16.78C69.2733 16.78 69.6 16.8667 69.76 17.04C69.9333 17.2133 70.02 17.4467 70.02 17.74C70.02 18.1933 69.8867 18.5533 69.62 18.82C69.3533 19.0733 68.9733 19.2 68.48 19.2H65.06L64.94 20.06C64.66 22.26 64.06 23.8267 63.14 24.76C62.2333 25.6933 60.98 26.16 59.38 26.16C58.4733 26.16 57.64 25.9667 56.88 25.58C56.12 25.18 55.56 24.7 55.2 24.14C55.0533 23.9133 54.98 23.64 54.98 23.32C54.98 23 55.0533 22.72 55.2 22.48C55.36 22.24 55.5533 22.12 55.78 22.12C55.94 22.12 56.0933 22.1733 56.24 22.28C56.4 22.3867 56.6 22.5933 56.84 22.9C57.48 23.74 58.2733 24.16 59.22 24.16C59.98 24.16 60.6133 23.8533 61.12 23.24C61.64 22.6133 61.9733 21.6333 62.12 20.3L62.24 19.2H61.28C60.9733 19.2 60.7067 19.1133 60.48 18.94C60.2667 18.7667 60.16 18.52 60.16 18.2C60.16 17.7867 60.2667 17.4733 60.48 17.26C60.6933 17.0333 61.0067 16.92 61.42 16.92C61.7933 16.92 62.16 16.9133 62.52 16.9C62.68 15.4333 62.8533 13.6533 63.04 11.56C61.6 11.6933 60.5867 11.9267 60 12.26C59.4133 12.5933 59.12 13.0867 59.12 13.74C59.12 14.1933 59.2533 14.6267 59.52 15.04C59.6 15.16 59.64 15.28 59.64 15.4C59.64 15.64 59.5067 15.8533 59.24 16.04C58.9733 16.2133 58.6733 16.3 58.34 16.3C57.98 16.3 57.6733 16.1933 57.42 15.98C57.26 15.8467 57.1067 15.5733 56.96 15.16C56.8133 14.7467 56.74 14.2867 56.74 13.78C56.74 12.1267 57.5867 10.9267 59.28 10.18C60.9867 9.43333 63.4733 9.06 66.74 9.06C69.0067 9.06 71.0067 9.18 72.74 9.42ZM80.203 19.86C80.3763 19.86 80.5096 19.9467 80.603 20.12C80.6963 20.2933 80.743 20.5133 80.743 20.78C80.743 21.42 80.5496 21.8 80.163 21.92C79.363 22.2 78.483 22.36 77.523 22.4C77.2696 23.52 76.7696 24.42 76.023 25.1C75.2763 25.7667 74.4296 26.1 73.483 26.1C72.683 26.1 71.9963 25.9067 71.423 25.52C70.863 25.1333 70.4363 24.62 70.143 23.98C69.8496 23.34 69.703 22.6467 69.703 21.9C69.703 20.8867 69.8963 19.9867 70.283 19.2C70.6696 18.4 71.203 17.78 71.883 17.34C72.563 16.8867 73.3163 16.66 74.143 16.66C75.1563 16.66 75.9696 17.0133 76.583 17.72C77.2096 18.4133 77.5763 19.2733 77.683 20.3C78.3096 20.26 79.0563 20.1267 79.923 19.9C80.0296 19.8733 80.123 19.86 80.203 19.86ZM73.643 23.98C74.0696 23.98 74.4363 23.8067 74.743 23.46C75.063 23.1133 75.2763 22.6133 75.383 21.96C74.9696 21.68 74.6496 21.3133 74.423 20.86C74.2096 20.4067 74.103 19.9267 74.103 19.42C74.103 19.2067 74.123 18.9933 74.163 18.78H74.063C73.5296 18.78 73.083 19.04 72.723 19.56C72.3763 20.0667 72.203 20.7867 72.203 21.72C72.203 22.4533 72.343 23.0133 72.623 23.4C72.9163 23.7867 73.2563 23.98 73.643 23.98ZM80.4464 26.1C79.9397 26.1 79.5797 25.8333 79.3664 25.3C79.1664 24.7667 79.0664 23.9133 79.0664 22.74C79.0664 21.0067 79.3131 19.36 79.8064 17.8C79.9264 17.4133 80.1197 17.1333 80.3864 16.96C80.6664 16.7733 81.0531 16.68 81.5464 16.68C81.8131 16.68 81.9997 16.7133 82.1064 16.78C82.2131 16.8467 82.2664 16.9733 82.2664 17.16C82.2664 17.3733 82.1664 17.8533 81.9664 18.6C81.8331 19.1333 81.7264 19.6 81.6464 20C81.5664 20.4 81.4997 20.8933 81.4464 21.48C81.8864 20.3333 82.3797 19.4 82.9264 18.68C83.4731 17.96 84.0064 17.4467 84.5264 17.14C85.0597 16.8333 85.5464 16.68 85.9864 16.68C86.8531 16.68 87.2864 17.1133 87.2864 17.98C87.2864 18.1533 87.2264 18.5733 87.1064 19.24C86.9997 19.7733 86.9464 20.1067 86.9464 20.24C86.9464 20.7067 87.1131 20.94 87.4464 20.94C87.8197 20.94 88.2997 20.6467 88.8864 20.06C89.0597 19.8867 89.2397 19.8 89.4264 19.8C89.5997 19.8 89.7331 19.88 89.8264 20.04C89.9331 20.1867 89.9864 20.3867 89.9864 20.64C89.9864 21.1333 89.8531 21.52 89.5864 21.8C89.2131 22.1867 88.7731 22.52 88.2664 22.8C87.7731 23.0667 87.2464 23.2 86.6864 23.2C85.9797 23.2 85.4397 23.02 85.0664 22.66C84.7064 22.3 84.5264 21.8133 84.5264 21.2C84.5264 21 84.5464 20.8 84.5864 20.6C84.6131 20.3333 84.6264 20.1533 84.6264 20.06C84.6264 19.8467 84.5531 19.74 84.4064 19.74C84.2064 19.74 83.9397 19.9667 83.6064 20.42C83.2864 20.86 82.9664 21.4467 82.6464 22.18C82.3264 22.9133 82.0664 23.6867 81.8664 24.5C81.7197 25.1267 81.5464 25.5533 81.3464 25.78C81.1597 25.9933 80.8597 26.1 80.4464 26.1ZM89.548 26.1C89.0413 26.1 88.6813 25.8333 88.468 25.3C88.268 24.7667 88.168 23.9133 88.168 22.74C88.168 21.0067 88.4146 19.36 88.908 17.8C89.028 17.4133 89.2213 17.1333 89.488 16.96C89.768 16.7733 90.1546 16.68 90.648 16.68C90.9146 16.68 91.1013 16.7133 91.208 16.78C91.3146 16.8467 91.368 16.9733 91.368 17.16C91.368 17.3733 91.268 17.8533 91.068 18.6C90.9346 19.1333 90.828 19.6 90.748 20C90.668 20.3867 90.6013 20.8733 90.548 21.46C90.908 20.42 91.3346 19.54 91.828 18.82C92.3346 18.1 92.848 17.5667 93.368 17.22C93.9013 16.86 94.4013 16.68 94.868 16.68C95.3346 16.68 95.6613 16.7867 95.848 17C96.048 17.2133 96.148 17.54 96.148 17.98C96.148 18.4067 96.0213 19.18 95.768 20.3C95.6613 20.78 95.588 21.14 95.548 21.38C95.988 20.26 96.4746 19.3467 97.008 18.64C97.5546 17.9333 98.088 17.4333 98.608 17.14C99.128 16.8333 99.608 16.68 100.048 16.68C100.475 16.68 100.795 16.7933 101.008 17.02C101.235 17.2333 101.348 17.5533 101.348 17.98C101.348 18.3267 101.275 18.98 101.128 19.94C100.995 20.7533 100.888 21.5267 100.808 22.26C100.728 22.98 100.688 23.7867 100.688 24.68C100.688 25.1867 100.581 25.5533 100.368 25.78C100.168 25.9933 99.8346 26.1 99.368 26.1C98.928 26.1 98.608 25.9867 98.408 25.76C98.208 25.5333 98.108 25.1933 98.108 24.74C98.108 24.2067 98.2013 23.3267 98.388 22.1C98.548 21.0333 98.628 20.3533 98.628 20.06C98.628 19.8467 98.5546 19.74 98.408 19.74C98.2346 19.74 97.988 19.9667 97.668 20.42C97.348 20.86 97.028 21.4467 96.708 22.18C96.388 22.9133 96.128 23.6867 95.928 24.5C95.7813 25.14 95.608 25.5667 95.408 25.78C95.2213 25.9933 94.9146 26.1 94.488 26.1C94.048 26.1 93.7146 25.8933 93.488 25.48C93.2746 25.0533 93.168 24.54 93.168 23.94C93.168 23.4333 93.2346 22.7 93.368 21.74C93.4746 20.8867 93.528 20.3267 93.528 20.06C93.528 19.8467 93.4546 19.74 93.308 19.74C93.108 19.74 92.8546 19.98 92.548 20.46C92.2413 20.94 91.9413 21.5533 91.648 22.3C91.368 23.0467 91.1413 23.78 90.968 24.5C90.8213 25.1267 90.648 25.5533 90.448 25.78C90.2613 25.9933 89.9613 26.1 89.548 26.1ZM123.569 14.08C123.569 15.2133 123.276 16.2533 122.689 17.2C122.103 18.1467 121.249 18.92 120.129 19.52C119.009 20.12 117.676 20.4733 116.129 20.58L115.269 25.4C114.936 27.2533 114.029 28.18 112.549 28.18C111.736 28.18 110.983 27.94 110.289 27.46C109.609 26.98 109.063 26.2467 108.649 25.26C108.236 24.2733 108.029 23.06 108.029 21.62C108.029 18.9133 108.463 16.62 109.329 14.74C110.209 12.8467 111.383 11.4333 112.849 10.5C114.329 9.55333 115.956 9.08 117.729 9.08C118.983 9.08 120.043 9.3 120.909 9.74C121.789 10.18 122.449 10.78 122.889 11.54C123.343 12.2867 123.569 13.1333 123.569 14.08ZM116.489 18.52C119.223 18.1733 120.589 16.7533 120.589 14.26C120.589 13.38 120.296 12.6667 119.709 12.12C119.136 11.56 118.243 11.28 117.029 11.28C115.656 11.28 114.456 11.7133 113.429 12.58C112.416 13.4467 111.629 14.6533 111.069 16.2C110.523 17.7333 110.249 19.4867 110.249 21.46C110.249 22.2867 110.329 23.02 110.489 23.66C110.663 24.3 110.876 24.8 111.129 25.16C111.396 25.5067 111.649 25.68 111.889 25.68C112.223 25.68 112.476 25.22 112.649 24.3L113.309 20.52C112.789 20.44 112.563 20.4067 112.629 20.42C112.229 20.3533 111.969 20.2333 111.849 20.06C111.729 19.8733 111.669 19.64 111.669 19.36C111.669 19.0667 111.749 18.8333 111.909 18.66C112.083 18.4867 112.316 18.4 112.609 18.4C112.743 18.4 112.843 18.4067 112.909 18.42C113.229 18.4733 113.476 18.5067 113.649 18.52C113.823 17.48 114.069 16.0867 114.389 14.34C114.469 13.8867 114.649 13.5667 114.929 13.38C115.223 13.18 115.563 13.08 115.949 13.08C116.389 13.08 116.703 13.1667 116.889 13.34C117.089 13.5 117.189 13.76 117.189 14.12C117.189 14.3333 117.176 14.5067 117.149 14.64L116.489 18.52ZM124.924 26.1C124.097 26.1 123.437 25.8 122.944 25.2C122.451 24.6 122.204 23.8133 122.204 22.84C122.204 21.7733 122.451 20.7667 122.944 19.82C123.437 18.86 124.091 18.0933 124.904 17.52C125.731 16.9333 126.604 16.64 127.524 16.64C127.817 16.64 128.011 16.7 128.104 16.82C128.211 16.9267 128.297 17.1267 128.364 17.42C128.644 17.3667 128.937 17.34 129.244 17.34C129.897 17.34 130.224 17.5733 130.224 18.04C130.224 18.32 130.124 18.9867 129.924 20.04C129.617 21.5733 129.464 22.64 129.464 23.24C129.464 23.44 129.511 23.6 129.604 23.72C129.711 23.84 129.844 23.9 130.004 23.9C130.257 23.9 130.564 23.74 130.924 23.42C131.284 23.0867 131.771 22.5533 132.384 21.82C132.544 21.6333 132.724 21.54 132.924 21.54C133.097 21.54 133.231 21.62 133.324 21.78C133.431 21.94 133.484 22.16 133.484 22.44C133.484 22.9733 133.357 23.3867 133.104 23.68C132.557 24.36 131.977 24.9333 131.364 25.4C130.751 25.8667 130.157 26.1 129.584 26.1C129.144 26.1 128.737 25.9533 128.364 25.66C128.004 25.3533 127.731 24.94 127.544 24.42C126.851 25.54 125.977 26.1 124.924 26.1ZM125.644 24.08C125.937 24.08 126.217 23.9067 126.484 23.56C126.751 23.2133 126.944 22.7533 127.064 22.18L127.804 18.5C127.244 18.5133 126.724 18.7267 126.244 19.14C125.777 19.54 125.404 20.0733 125.124 20.74C124.844 21.4067 124.704 22.1133 124.704 22.86C124.704 23.2733 124.784 23.58 124.944 23.78C125.117 23.98 125.351 24.08 125.644 24.08ZM142.098 21.58C142.272 21.58 142.405 21.6667 142.498 21.84C142.605 22 142.658 22.2067 142.658 22.46C142.658 22.7667 142.612 23.0067 142.518 23.18C142.425 23.3533 142.278 23.5067 142.078 23.64C140.932 24.4133 140.092 24.9867 139.558 25.36L138.278 26.22C137.772 28.98 137.105 31.1467 136.278 32.72C135.465 34.3067 134.425 35.1 133.158 35.1C132.478 35.1 131.925 34.8867 131.498 34.46C131.072 34.0467 130.858 33.5 130.858 32.82C130.858 31.8733 131.232 30.8533 131.978 29.76C132.725 28.68 134.125 27.3467 136.178 25.76L136.298 24.98C136.072 25.34 135.772 25.62 135.398 25.82C135.038 26.0067 134.678 26.1 134.318 26.1C133.492 26.1 132.832 25.8 132.338 25.2C131.845 24.6 131.598 23.8133 131.598 22.84C131.598 21.7733 131.845 20.7667 132.338 19.82C132.832 18.86 133.485 18.0933 134.298 17.52C135.125 16.9333 135.998 16.64 136.918 16.64C137.212 16.64 137.405 16.7 137.498 16.82C137.605 16.9267 137.692 17.1267 137.758 17.42C138.012 17.3667 138.305 17.34 138.638 17.34C138.972 17.34 139.205 17.3933 139.338 17.5C139.485 17.5933 139.558 17.7867 139.558 18.08C139.558 18.24 139.552 18.3667 139.538 18.46C139.485 18.8733 139.318 19.92 139.038 21.6C138.985 21.92 138.925 22.2733 138.858 22.66C138.805 23.0333 138.745 23.4333 138.678 23.86C139.705 23.06 140.692 22.3533 141.638 21.74C141.812 21.6333 141.965 21.58 142.098 21.58ZM135.038 24.08C135.345 24.08 135.638 23.8933 135.918 23.52C136.198 23.1467 136.398 22.6133 136.518 21.92L137.158 18.5C136.612 18.5133 136.105 18.7267 135.638 19.14C135.172 19.54 134.798 20.0733 134.518 20.74C134.238 21.4067 134.098 22.1133 134.098 22.86C134.098 23.2733 134.178 23.58 134.338 23.78C134.512 23.98 134.745 24.08 135.038 24.08ZM133.378 33.16C133.712 33.16 134.085 32.76 134.498 31.96C134.925 31.16 135.332 29.8867 135.718 28.14C134.692 29.02 133.952 29.8133 133.498 30.52C133.045 31.2267 132.818 31.8467 132.818 32.38C132.818 32.6067 132.858 32.7933 132.938 32.94C133.032 33.0867 133.178 33.16 133.378 33.16ZM148.589 22.14C148.762 22.14 148.895 22.22 148.989 22.38C149.095 22.54 149.149 22.76 149.149 23.04C149.149 23.52 149.035 23.9333 148.809 24.28C148.435 24.8533 147.942 25.3 147.329 25.62C146.729 25.94 146.009 26.1 145.169 26.1C143.889 26.1 142.895 25.72 142.189 24.96C141.482 24.1867 141.129 23.1467 141.129 21.84C141.129 20.92 141.322 20.0667 141.709 19.28C142.095 18.48 142.629 17.8467 143.309 17.38C144.002 16.9133 144.782 16.68 145.649 16.68C146.422 16.68 147.042 16.9133 147.509 17.38C147.975 17.8333 148.209 18.4533 148.209 19.24C148.209 20.16 147.875 20.9533 147.209 21.62C146.555 22.2733 145.435 22.7933 143.849 23.18C144.169 23.7933 144.709 24.1 145.469 24.1C146.015 24.1 146.462 23.9733 146.809 23.72C147.169 23.4667 147.582 23.04 148.049 22.44C148.209 22.24 148.389 22.14 148.589 22.14ZM145.309 18.64C144.815 18.64 144.395 18.9267 144.049 19.5C143.715 20.0733 143.549 20.7667 143.549 21.58V21.62C144.335 21.4333 144.955 21.1533 145.409 20.78C145.862 20.4067 146.089 19.9733 146.089 19.48C146.089 19.2267 146.015 19.0267 145.869 18.88C145.735 18.72 145.549 18.64 145.309 18.64Z" fill="#633514"/>
<path d="M4.74614 10.0142C4.28368 10.097 4.30194 10.0438 4.56968 10.6001C4.88001 11.2453 4.97737 11.7069 4.88001 12.1153C4.72788 12.7487 4.28977 13.1393 2.92066 13.8555C1.74627 14.4769 1.44202 14.6841 1.03433 15.1635C0.803103 15.4417 0.559706 15.927 0.620555 15.9862C0.63881 16.004 0.772679 15.9507 0.924802 15.8679C1.55763 15.5246 2.35476 15.3292 4.65486 14.9564C7.24704 14.5361 7.97724 14.2283 8.38493 13.3642C8.51271 13.0919 8.52488 12.9854 8.50663 12.5356C8.48837 12.1035 8.45186 11.9555 8.28757 11.63C7.77643 10.606 6.83327 10.0615 5.47633 10.0083C5.15991 9.99641 4.83133 9.99641 4.74614 10.0142Z" fill="#632414"/>
<path d="M9.01165 14.5776C8.58571 14.9859 7.80075 15.3648 6.93669 15.566C6.18825 15.7436 5.79272 15.7909 3.9855 15.9566C1.92271 16.146 1.22903 16.3177 0.803081 16.7438C0.699637 16.8504 0.602278 16.9983 0.596193 17.0812C0.577938 17.2173 0.602278 17.2292 0.912609 17.2647C1.09516 17.2884 1.38723 17.3475 1.5637 17.4067C1.87403 17.5074 1.89228 17.5014 2.31823 17.3771C2.79285 17.2351 3.15795 17.241 3.65083 17.3949C3.88814 17.4659 3.96116 17.4718 4.2289 17.3949C4.73395 17.2528 5.17815 17.2351 5.4398 17.3416C5.73187 17.46 6.1274 17.46 6.4073 17.3475C6.529 17.3002 6.74806 17.2588 6.8941 17.2588C7.04622 17.2588 7.28353 17.3002 7.42349 17.3475C7.56344 17.3949 7.7825 17.4363 7.91028 17.4363C8.03806 17.4363 8.25712 17.3949 8.39708 17.3475C8.75609 17.2233 9.13944 17.2351 9.58972 17.3831L9.97307 17.5074L10.3808 17.3831C10.6059 17.318 10.9284 17.2588 11.0927 17.2588H11.3909L11.3665 16.7379C11.3239 15.8027 10.8858 15.1753 9.84529 14.5598L9.34024 14.2639L9.01165 14.5776Z" fill="#632414"/>
<path d="M0 17.9868C0 18.0105 0.578068 19.064 1.70378 21.0882L2.76256 23H5.96323H9.16999L10.2288 21.0941C11.3667 19.0344 11.9265 18.0105 11.9265 17.9868C11.9265 17.9394 11.1354 17.9809 10.9346 18.0341C10.4417 18.1643 10.3261 18.3538 9.52292 20.4549L8.78055 22.3785H8.57367C8.40937 22.3785 8.37286 22.3549 8.38503 22.272C8.3972 22.2128 8.67711 21.4019 9.01178 20.4786C9.34037 19.5493 9.61419 18.7266 9.61419 18.6438C9.61419 18.3064 9.27952 17.969 8.94485 17.969C8.71362 17.969 8.40937 18.1348 8.3181 18.3064C8.26334 18.4011 8.05645 19.3422 7.84956 20.3957C7.64267 21.4552 7.46012 22.3371 7.44796 22.3608C7.41145 22.414 7.09503 22.4259 7.04635 22.3785C7.03418 22.3608 7.16196 21.5085 7.33843 20.4786C7.67918 18.4899 7.67918 18.4425 7.41145 18.1643C7.14371 17.8862 6.57781 17.9572 6.34658 18.3005C6.24922 18.4485 6.23705 18.6556 6.20663 20.4253L6.1762 22.3785H5.96323H5.75026L5.71983 20.4253C5.68941 18.3064 5.68333 18.2886 5.33648 18.0874C5.087 17.9394 4.8862 17.9394 4.63672 18.0874C4.23511 18.3301 4.23511 18.3715 4.58804 20.4727C4.7645 21.5025 4.89228 22.3608 4.88011 22.3785C4.83143 22.4259 4.51502 22.414 4.48459 22.3608C4.46634 22.3371 4.28379 21.4552 4.08299 20.4076C3.8761 19.354 3.66921 18.4129 3.61445 18.3123C3.52317 18.1348 3.21284 17.969 2.98162 17.969C2.64694 17.969 2.31227 18.3064 2.31227 18.6438C2.31227 18.7266 2.5861 19.5493 2.91468 20.4786C3.24935 21.4019 3.52926 22.2128 3.54143 22.272C3.5536 22.3549 3.51709 22.3785 3.3528 22.3785H3.14591L2.40355 20.4549C1.60034 18.3538 1.48472 18.1643 0.991844 18.0341C0.791041 17.9809 0 17.9394 0 17.9868Z" fill="#632414"/>
<path d="M196.746 11.0142C196.284 11.097 196.302 11.0438 196.57 11.6001C196.88 12.2453 196.977 12.7069 196.88 13.1153C196.728 13.7487 196.29 14.1393 194.921 14.8555C193.746 15.4769 193.442 15.6841 193.034 16.1635C192.803 16.4417 192.56 16.927 192.621 16.9862C192.639 17.004 192.773 16.9507 192.925 16.8679C193.558 16.5246 194.355 16.3292 196.655 15.9564C199.247 15.5361 199.977 15.2283 200.385 14.3642C200.513 14.0919 200.525 13.9854 200.507 13.5356C200.488 13.1035 200.452 12.9555 200.288 12.63C199.776 11.606 198.833 11.0615 197.476 11.0083C197.16 10.9964 196.831 10.9964 196.746 11.0142Z" fill="#632414"/>
<path d="M201.012 15.5776C200.586 15.9859 199.801 16.3648 198.937 16.566C198.188 16.7436 197.793 16.7909 195.985 16.9566C193.923 17.146 193.229 17.3177 192.803 17.7438C192.7 17.8504 192.602 17.9983 192.596 18.0812C192.578 18.2173 192.602 18.2292 192.913 18.2647C193.095 18.2884 193.387 18.3475 193.564 18.4067C193.874 18.5074 193.892 18.5014 194.318 18.3771C194.793 18.2351 195.158 18.241 195.651 18.3949C195.888 18.4659 195.961 18.4718 196.229 18.3949C196.734 18.2528 197.178 18.2351 197.44 18.3416C197.732 18.46 198.127 18.46 198.407 18.3475C198.529 18.3002 198.748 18.2588 198.894 18.2588C199.046 18.2588 199.284 18.3002 199.423 18.3475C199.563 18.3949 199.782 18.4363 199.91 18.4363C200.038 18.4363 200.257 18.3949 200.397 18.3475C200.756 18.2233 201.139 18.2351 201.59 18.3831L201.973 18.5074L202.381 18.3831C202.606 18.318 202.928 18.2588 203.093 18.2588H203.391L203.367 17.7379C203.324 16.8027 202.886 16.1753 201.845 15.5598L201.34 15.2639L201.012 15.5776Z" fill="#632414"/>
<path d="M192 18.9868C192 19.0105 192.578 20.064 193.704 22.0882L194.763 24H197.963H201.17L202.229 22.0941C203.367 20.0344 203.926 19.0105 203.926 18.9868C203.926 18.9394 203.135 18.9809 202.935 19.0341C202.442 19.1643 202.326 19.3538 201.523 21.4549L200.781 23.3785H200.574C200.409 23.3785 200.373 23.3549 200.385 23.272C200.397 23.2128 200.677 22.4019 201.012 21.4786C201.34 20.5493 201.614 19.7266 201.614 19.6438C201.614 19.3064 201.28 18.969 200.945 18.969C200.714 18.969 200.409 19.1348 200.318 19.3064C200.263 19.4011 200.056 20.3422 199.85 21.3957C199.643 22.4552 199.46 23.3371 199.448 23.3608C199.411 23.414 199.095 23.4259 199.046 23.3785C199.034 23.3608 199.162 22.5085 199.338 21.4786C199.679 19.4899 199.679 19.4425 199.411 19.1643C199.144 18.8862 198.578 18.9572 198.347 19.3005C198.249 19.4485 198.237 19.6556 198.207 21.4253L198.176 23.3785H197.963H197.75L197.72 21.4253C197.689 19.3064 197.683 19.2886 197.336 19.0874C197.087 18.9394 196.886 18.9394 196.637 19.0874C196.235 19.3301 196.235 19.3715 196.588 21.4727C196.765 22.5025 196.892 23.3608 196.88 23.3785C196.831 23.4259 196.515 23.414 196.485 23.3608C196.466 23.3371 196.284 22.4552 196.083 21.4076C195.876 20.354 195.669 19.4129 195.614 19.3123C195.523 19.1348 195.213 18.969 194.982 18.969C194.647 18.969 194.312 19.3064 194.312 19.6438C194.312 19.7266 194.586 20.5493 194.915 21.4786C195.249 22.4019 195.529 23.2128 195.541 23.272C195.554 23.3549 195.517 23.3785 195.353 23.3785H195.146L194.404 21.4549C193.6 19.3538 193.485 19.1643 192.992 19.0341C192.791 18.9809 192 18.9394 192 18.9868Z" fill="#632414"/>
</svg>
