<svg width="12" height="13" viewBox="0 0 12 13" fill="none" xmlns="http://www.w3.org/2000/svg">
<path d="M4.74614 0.0141692C4.28368 0.0970325 4.30194 0.0437632 4.56968 0.60013C4.88001 1.24528 4.97737 1.70694 4.88001 2.11534C4.72788 2.74865 4.28977 3.13929 2.92066 3.85546C1.74627 4.47694 1.44202 4.68409 1.03433 5.16352C0.803103 5.4417 0.559706 5.92704 0.620555 5.98623C0.63881 6.00398 0.772679 5.95072 0.924802 5.86785C1.55763 5.52456 2.35476 5.32924 4.65486 4.95636C7.24704 4.53612 7.97724 4.22835 8.38493 3.3642C8.51271 3.09194 8.52488 2.9854 8.50663 2.53557C8.48837 2.1035 8.45186 1.95553 8.28757 1.63C7.77643 0.606049 6.83327 0.0615196 5.47633 0.00825071C5.15991 -0.00358677 4.83133 -0.00358677 4.74614 0.0141692Z" fill="#632414"/>
<path d="M9.01165 4.57755C8.58571 4.98595 7.80075 5.36475 6.93669 5.56599C6.18825 5.74355 5.79272 5.7909 3.9855 5.95663C1.92271 6.14603 1.22903 6.31768 0.803081 6.74383C0.699637 6.85037 0.602278 6.99834 0.596193 7.0812C0.577938 7.21733 0.602278 7.22917 0.912609 7.26468C1.09516 7.28836 1.38723 7.34755 1.5637 7.40673C1.87403 7.50735 1.89228 7.50143 2.31823 7.37714C2.79285 7.23509 3.15795 7.24101 3.65083 7.3949C3.88814 7.46592 3.96116 7.47184 4.2289 7.3949C4.73395 7.25284 5.17815 7.23509 5.4398 7.34163C5.73187 7.46 6.1274 7.46 6.4073 7.34755C6.529 7.3002 6.74806 7.25876 6.8941 7.25876C7.04622 7.25876 7.28353 7.3002 7.42349 7.34755C7.56344 7.3949 7.7825 7.43633 7.91028 7.43633C8.03806 7.43633 8.25712 7.3949 8.39708 7.34755C8.75609 7.22325 9.13944 7.23509 9.58972 7.38306L9.97307 7.50735L10.3808 7.38306C10.6059 7.31795 10.9284 7.25876 11.0927 7.25876H11.3909L11.3665 6.73791C11.3239 5.80274 10.8858 5.17535 9.84529 4.5598L9.34024 4.26386L9.01165 4.57755Z" fill="#632414"/>
<path d="M0 7.98678C0 8.01046 0.578068 9.064 1.70378 11.0882L2.76256 13H5.96323H9.16999L10.2288 11.0941C11.3667 9.03441 11.9265 8.01046 11.9265 7.98678C11.9265 7.93944 11.1354 7.98087 10.9346 8.03414C10.4417 8.16435 10.3261 8.35375 9.52292 10.4549L8.78055 12.3785H8.57367C8.40937 12.3785 8.37286 12.3549 8.38503 12.272C8.3972 12.2128 8.67711 11.4019 9.01178 10.4786C9.34037 9.54935 9.61419 8.72663 9.61419 8.64377C9.61419 8.3064 9.27952 7.96903 8.94485 7.96903C8.71362 7.96903 8.40937 8.13476 8.3181 8.3064C8.26334 8.4011 8.05645 9.34219 7.84956 10.3957C7.64267 11.4552 7.46012 12.3371 7.44796 12.3608C7.41145 12.414 7.09503 12.4259 7.04635 12.3785C7.03418 12.3608 7.16196 11.5085 7.33843 10.4786C7.67918 8.48988 7.67918 8.44253 7.41145 8.16435C7.14371 7.88617 6.57781 7.95719 6.34658 8.30048C6.24922 8.44845 6.23705 8.65561 6.20663 10.4253L6.1762 12.3785H5.96323H5.75026L5.71983 10.4253C5.68941 8.3064 5.68333 8.28864 5.33648 8.0874C5.087 7.93944 4.8862 7.93944 4.63672 8.0874C4.23511 8.33007 4.23511 8.37151 4.58804 10.4727C4.7645 11.5025 4.89228 12.3608 4.88011 12.3785C4.83143 12.4259 4.51502 12.414 4.48459 12.3608C4.46634 12.3371 4.28379 11.4552 4.08299 10.4076C3.8761 9.35403 3.66921 8.41294 3.61445 8.31232C3.52317 8.13476 3.21284 7.96903 2.98162 7.96903C2.64694 7.96903 2.31227 8.3064 2.31227 8.64377C2.31227 8.72663 2.5861 9.54935 2.91468 10.4786C3.24935 11.4019 3.52926 12.2128 3.54143 12.272C3.5536 12.3549 3.51709 12.3785 3.3528 12.3785H3.14591L2.40355 10.4549C1.60034 8.35375 1.48472 8.16435 0.991844 8.03414C0.791041 7.98087 0 7.93944 0 7.98678Z" fill="#632414"/>
</svg>
