<svg width="14" height="13" viewBox="0 0 14 13" fill="none" xmlns="http://www.w3.org/2000/svg">
<path d="M12.8426 11.694L10.0348 8.96854C10.8602 8.00961 11.3103 6.81414 11.3103 5.54835C11.3103 4.12273 10.7373 2.78236 9.69895 1.77229C8.66059 0.76221 7.27978 0.20816 5.80896 0.20816C4.33814 0.20816 2.95952 0.764341 1.91896 1.77229C0.878414 2.78023 0.307648 4.1206 0.307648 5.54835C0.307648 6.97609 0.880609 8.31433 1.91896 9.32441C2.95732 10.3345 4.34253 10.8885 5.81115 10.8885C6.92634 10.8885 7.99104 10.5689 8.89548 9.97222L11.7559 12.7489C11.9052 12.8938 12.1027 12.9683 12.2981 12.9683C12.4935 12.9683 12.6911 12.8959 12.8404 12.7489C13.1433 12.4569 13.1433 11.9838 12.8426 11.694ZM8.50253 8.36974C8.4696 8.39318 8.43887 8.41875 8.41033 8.44645L8.38618 8.46989C7.69248 9.04738 6.79243 9.39473 5.81115 9.39473C3.62468 9.39473 1.84652 7.66865 1.84652 5.54622C1.84652 3.42378 3.62468 1.6977 5.81115 1.6977C7.99762 1.6977 9.77578 3.42378 9.77578 5.54622C9.77578 6.66284 9.28404 7.66652 8.50253 8.36974Z" fill="#9A311E"/>
</svg>
